<?xml version="1.0" encoding="utf-8"?>
<!-- Generator: Adobe Illustrator 25.1.0, SVG Export Plug-In . SVG Version: 6.00 Build 0)  -->
<svg version="1.1" id="Layer_1" xmlns="http://www.w3.org/2000/svg" xmlns:xlink="http://www.w3.org/1999/xlink" x="0px" y="0px"
	 viewBox="0 0 1000 1000" style="enable-background:new 0 0 1000 1000;" xml:space="preserve">
<style type="text/css">
	.st0{fill:url(#SVGID_1_);}
	.st1{fill:url(#SVGID_2_);}
</style>
<g>
	<linearGradient id="SVGID_1_" gradientUnits="userSpaceOnUse" x1="487.6514" y1="920.5528" x2="842.9424" y2="146.7656">
		<stop  offset="0" style="stop-color:#F1AE3B"/>
		<stop  offset="0.0631" style="stop-color:#F2C318"/>
		<stop  offset="1" style="stop-color:#EFB42E"/>
	</linearGradient>
	<path class="st0" d="M384.81,792.42l9.94,8.86l7.99,6.52l5.72,4.31l7.01,4.72l6.54,3.84l5.23,2.81l4.61,2.1l5.7,2.32
		c0,0,7.2,2.37,7.2,2.37c18.09,4.23,35.33,3.22,51.88-5.88c14.06-7.74,25.53-19.54,35.08-32.44c18.59-25.09,29.84-54.01,40.64-83.03
		c0,0,5-15.64,5-15.64l5.43-19.04l6.52-26.28l1.67-7.24l1.96-9.12l1.59-9.78l102.53-372.47l-109.19,4.34L849.1,5.91L1000,253.38
		c0,0-112.38,0-112.38,0c-7.33,23.72-14.67,47.44-22,71.16c-17.14,55.45-34.29,110.9-51.43,166.34
		c-19.71,63.73-39.41,127.47-59.12,191.2c-15.02,48.57-30.04,97.15-45.06,145.72c-4.24,13.7-7.24,30.71-14.48,42.93
		c-17.93,30.25-43.23,55.73-72.19,75.5c-14.45,9.86-29.77,18.05-45.67,25.3c-15.79,7.2-32.85,17.3-50.77,16.62
		c-4.59-0.17-10.99-4.91-14.74-7.1c-31.39-18.33-55.62-48.23-74.31-78.83C393.79,830.05,384.81,792.42,384.81,792.42z"/>
</g>
<linearGradient id="SVGID_2_" gradientUnits="userSpaceOnUse" x1="456.1758" y1="1012.3479" x2="201.17" y2="159.8173">
	<stop  offset="0" style="stop-color:#F47529"/>
	<stop  offset="1" style="stop-color:#F47529"/>
</linearGradient>
<path class="st1" d="M0,145.92h194.06l57.06,196.08l207.09,3.48v146.27l-165.38-5.5l93.55,307.11c0,0,13.32,32.05,13.32,32.05
	c13.61,32.73,32.18,66.16,53.26,95.13c10.79,14.83,22.82,28.77,36.19,41.34c12.31,11.57,24.38,18.58,39.15,26.3
	c0,0-14.48,2.61-14.48,2.61c-72.88,8.82-150.25,1.31-213.2-39.46c-54.17-35.09-86.29-88.35-108.3-147.55c0,0-5.89-19.6-5.89-19.6
	l-15.64-52.91L0,145.92z"/>
</svg>
